<svg width="14" height="15" viewBox="0 0 14 15" fill="none" xmlns="http://www.w3.org/2000/svg">
<path fill-rule="evenodd" clip-rule="evenodd" d="M13.4327 5.51951H9.34176C9.09712 5.52085 8.87916 5.3661 8.80096 5.13555L7.54081 1.32191C7.46169 1.09198 7.24435 0.9375 7 0.9375C6.75564 0.9375 6.53831 1.09198 6.45919 1.32191L5.19904 5.13555C5.12084 5.3661 4.90288 5.52085 4.65824 5.51951H0.567264C0.324195 5.51409 0.105896 5.6667 0.0287264 5.896C-0.0484429 6.1253 0.0335004 6.37786 0.230878 6.51905L3.55075 8.89128C3.7469 9.02982 3.82972 9.2791 3.75517 9.5066L2.48984 13.3372C2.43546 13.5081 2.46705 13.6946 2.57474 13.8383C2.68242 13.982 2.85304 14.0654 3.03323 14.0624C3.15339 14.0619 3.27027 14.0234 3.36703 13.9525L6.66361 11.5973C6.8648 11.4542 7.1352 11.4542 7.33639 11.5973L10.633 13.9525C10.7297 14.0234 10.8466 14.0619 10.9668 14.0624C11.147 14.0654 11.3176 13.982 11.4253 13.8383C11.5329 13.6946 11.5645 13.5081 11.5102 13.3372L10.2448 9.5066C10.1703 9.2791 10.2531 9.02982 10.4492 8.89128L13.7691 6.51905C13.9665 6.37786 14.0484 6.1253 13.9713 5.896C13.8941 5.6667 13.6758 5.51409 13.4327 5.51951Z" fill="#e4e4eb"/>
</svg>
