<svg width="20" height="20" viewBox="0 0 100 100" fill="none" xmlns="http://www.w3.org/2000/svg">
<g clip-path="url(#clip0_5283_69972)">
<path fill-rule="evenodd" clip-rule="evenodd" d="M16.2416 13.1168C25.1375 4.97069 36.9883 0 50 0C63.0117 0 74.8625 4.97069 83.7571 13.1168H16.2416ZM18.7918 57.8298C18.6777 58.7819 17.841 60.9676 16.9097 62.1052H16.911C16.2412 62.922 15.4629 63.6403 14.6793 64.3635L14.6791 64.3637L14.6791 64.3637C14.2395 64.7694 13.7983 65.1766 13.3736 65.6036H13.3707C12.4374 66.5436 11.5858 67.5783 11.0115 68.9045H11.0128C10.2797 70.5949 10.3852 72.4387 10.4904 74.2757C10.6001 76.1925 10.7094 78.1018 9.86484 79.8213C6.68975 75.5541 4.17867 70.7643 2.48459 65.6036H2.48405C0.871686 60.6939 0 55.4482 0 50.0001C0 35.3981 6.26005 22.258 16.2416 13.1169H83.7597C93.7412 22.258 100.001 35.3981 100.001 50.0001C100.001 55.4495 99.1283 60.6939 97.5173 65.6036H97.5159C95.9321 70.4315 93.6336 74.9339 90.7448 78.9874C90.7007 78.9018 90.6566 78.8149 90.6151 78.728C90.1133 77.6877 90.064 75.8432 90.0127 73.919C89.9604 71.9589 89.9059 69.9159 89.3685 68.5557C89.0066 67.6387 88.2037 66.6502 87.2205 65.6034H87.2216C86.7314 65.0822 86.1965 64.5465 85.6487 63.9981C83.5234 61.8702 81.2055 59.5495 80.5661 57.128C80.2219 55.8271 80.0286 54.3283 79.8391 52.8589L79.8391 52.8588L79.8391 52.8587C79.6601 51.4711 79.4846 50.1098 79.1885 48.9663C78.7928 47.4363 77.6915 46.0052 76.4968 44.4525C75.6707 43.379 74.8 42.2474 74.0868 40.9849C72.6288 38.4036 72.0464 31.469 72.0464 31.469C72.0464 31.469 70.2926 25.0585 64.7849 20.0204C60.9895 16.5466 55.0835 13.5476 48.0698 14.4802C46.703 14.662 45.4232 15.3475 44.166 16.0208L44.166 16.0208C43.5297 16.3616 42.8993 16.6992 42.2664 16.9669C41.5957 17.2501 40.9289 17.5025 40.2714 17.7515C38.4416 18.4442 36.6829 19.1101 35.1074 20.3382C31.6865 23.0055 30.2581 27.6381 28.7707 32.4622C28.2327 34.2069 27.687 35.9767 27.0365 37.6876C26.4658 39.1886 24.9403 40.901 23.3984 42.6319C21.7024 44.5357 19.9866 46.4618 19.5001 48.153C18.9422 50.0908 18.9354 52.25 18.929 54.2924C18.925 55.5409 18.9213 56.7457 18.7918 57.8298Z" fill="white"/>
<path d="M90.6152 78.728C89.6034 76.6279 90.4336 71.2526 89.3686 68.5558C89.0067 67.6374 88.2038 66.649 87.2205 65.6035C84.8299 63.0597 81.3704 60.1736 80.5648 57.1279C79.8968 54.5997 79.7969 51.3205 79.1873 48.9662C78.5166 46.3784 75.8289 44.0733 74.0856 40.9848C72.6276 38.4048 72.0451 31.4689 72.0451 31.4689C72.0451 31.4689 70.2901 25.0584 64.7837 20.0203C60.9882 16.5478 55.0823 13.5488 48.0686 14.4801C46.01 14.7538 44.1486 16.1703 42.2651 16.9668C39.7279 18.0369 37.2478 18.6673 35.1062 20.3381C30.4494 23.9701 29.4856 31.2458 27.0353 37.6875C25.8367 40.8395 20.4276 44.9243 19.4988 48.1529C18.5999 51.2751 19.1317 54.972 18.7906 57.8296C18.6764 58.7804 17.8398 60.9674 16.9084 62.105C15.8642 63.3801 14.5528 64.4153 13.3711 65.6035C12.4372 66.5426 11.5849 67.579 11.0103 68.906C9.51207 72.3603 11.5162 76.4554 9.8623 79.8228C10.9247 81.251 12.0623 82.6195 13.2673 83.9244C15.9836 81.7815 19.4106 80.4948 23.6899 78.7747C28.2131 76.9548 32.4833 75.6382 32.4833 75.6382C32.4833 75.6382 35.0711 72.346 36.9806 70.2641C38.89 68.1835 40.1223 67.3144 40.1223 67.3144H40.1715C40.1741 67.2898 40.178 67.2651 40.1806 67.2405C40.2273 66.8163 40.2494 66.3545 40.2572 65.8798L40.239 65.6035L39.9471 61.0543C39.9471 61.0543 38.5177 59.2967 37.4657 57.002C36.4137 54.7087 35.7392 51.8757 35.7392 51.8757C35.7392 51.8757 34.4861 51.7226 33.259 50.9236C31.7881 49.9663 30.3573 48.1762 31.1732 45.8427C31.5195 44.8529 33.1254 44.2549 35.2917 43.2133C37.8458 41.9849 41.1237 40.248 43.2445 38.0974C43.3444 37.9962 43.4417 37.8937 43.5389 37.7899C42.0174 37.6317 41.0173 38.3438 40.9641 38.3827C40.8694 38.4515 40.7592 38.4852 40.6502 38.4852C40.4881 38.4852 40.3272 38.4113 40.2234 38.2712C40.0496 38.0377 40.0976 37.7082 40.3311 37.5331C40.4076 37.476 42.0187 36.2995 44.3484 36.856C45.5392 35.3798 46.4549 33.7597 47.2242 32.1512C48.4123 29.6711 48.8728 27.6268 51.0611 26.6526C53.3208 25.6447 57.9127 27.3907 58.0139 28.6333C58.1163 29.876 59.0386 35.6756 61.3514 38.4035C64.7954 42.4649 68.5143 45.9827 68.5143 45.9827C68.5143 45.9827 68.919 46.0541 68.897 46.9219C68.7906 51.1973 64.4698 51.8718 64.4698 51.8718C64.4698 51.8718 64.021 54.5556 62.7394 57.0838C61.4565 59.6119 59.3408 61.9857 59.3408 61.9857C59.3408 61.9857 59.2682 63.7148 59.3123 65.6048C59.3253 66.1885 59.3512 66.7865 59.3927 67.3533H59.8727C59.8727 67.3533 61.3514 68.382 63.1843 70.4872C65.0159 72.5938 67.2016 75.7757 67.2016 75.7757C67.2016 75.7757 71.896 77.5749 76.9523 79.4609C80.3638 80.7321 83.9063 81.8996 86.6122 84.0554C88.0974 82.4599 89.4789 80.7672 90.7475 78.9875C90.7034 78.9019 90.6606 78.8149 90.6178 78.728H90.6152Z" fill="#EB3F3A"/>
<path fill-rule="evenodd" clip-rule="evenodd" d="M62.3346 82.8138L60.7352 71.6479C60.7352 71.6479 59.7598 70.7062 59.4705 68.2143C59.4394 67.9406 59.4134 67.6501 59.3914 67.353H59.8713C59.8713 67.353 61.3514 68.3817 63.1829 70.4869C65.0158 72.5922 67.2002 75.7754 67.2002 75.7754C67.2002 75.7754 71.8946 77.5746 76.9509 79.4606C77.3089 79.594 77.6683 79.7263 78.0281 79.8587C81.0967 80.9878 84.1889 82.1255 86.6108 84.0552C82.1265 88.8728 76.7031 92.8044 70.6312 95.5583C68.3326 95.5181 65.929 95.4779 63.4618 95.439L62.3813 83.1874C62.3852 83.1822 62.3878 83.1796 62.3878 83.1796L62.3683 83.0421L62.3476 82.8138H62.3346ZM70.6299 95.5587C68.4014 96.5692 66.0847 97.4228 63.6953 98.1012V98.0999L63.4605 95.4394L63.9748 95.4478C66.2628 95.485 68.4913 95.5213 70.6299 95.5587Z" fill="#1C2642"/>
<path fill-rule="evenodd" clip-rule="evenodd" d="M38.7368 71.2602L36.9909 82.7076L35.8066 95.0552C33.1215 95.0214 30.5349 94.989 28.1002 94.9605C22.4861 92.2209 17.4622 88.4617 13.2686 83.923C15.7798 81.9409 18.9014 80.6913 22.7422 79.1537C23.0538 79.029 23.3701 78.9024 23.6912 78.7733C28.2143 76.9547 32.4846 75.6368 32.4846 75.6368C32.4846 75.6368 35.0724 72.3433 36.9818 70.2627C38.8912 68.1821 40.1235 67.313 40.1235 67.313H40.1728C39.89 69.727 38.7368 71.2602 38.7368 71.2602ZM35.5367 97.8752C32.9645 97.0995 30.4805 96.1215 28.1015 94.9606C28.7944 94.969 29.4996 94.9776 30.2159 94.9864C32.016 95.0083 33.8861 95.0311 35.8066 95.0552L35.5367 97.8752ZM28.1015 94.9606C28.1015 94.9606 28.1015 94.9605 28.1015 94.9605H28.1002C28.1006 94.9605 28.1011 94.9606 28.1015 94.9606Z" fill="#1C2642"/>
<path d="M35.8067 95.0553L35.5369 97.8753C40.1158 99.2568 44.971 100 50.0001 100C54.749 100 59.3435 99.3385 63.6954 98.101L63.4606 95.4406C54.4649 95.2979 44.6091 95.1656 35.8067 95.0553Z" fill="white"/>
<path d="M63.4605 95.4405L62.38 83.1889C62.2749 83.3082 60.8221 84.9245 58.5508 86.114C56.0966 87.3994 52.6942 88.2218 49.4591 88.1622C46.3615 88.1038 43.1095 87.127 40.8071 85.8117C38.3879 84.4303 36.9922 82.7076 36.9922 82.7076L35.8079 95.0552C44.609 95.1655 54.4661 95.2978 63.4618 95.4405H63.4605Z" fill="white"/>
<path d="M62.3477 82.8141H62.3347L62.3671 83.0437L62.3477 82.8141Z" fill="white"/>
<path d="M40.2585 65.8836V65.8784C40.2507 66.3519 40.2286 66.815 40.1819 67.2391C40.1793 67.2638 40.1754 67.2884 40.1729 67.3131L42.2703 67.317C41.0484 66.5659 40.2585 65.8836 40.2585 65.8836Z" fill="#FFB69F"/>
<path d="M62.3864 83.1812L62.3669 83.0437L62.3799 83.189L62.3864 83.1812Z" fill="#FFDDC0"/>
<path d="M68.5143 45.9814C68.5143 45.9814 64.7966 42.4623 61.3514 38.4022C59.0386 35.6743 58.1163 29.876 58.0138 28.632C57.9113 27.3894 53.3194 25.6421 51.0611 26.6513C48.8728 27.6268 48.4123 29.6698 47.2241 32.1499C46.4549 33.7584 45.5378 35.3785 44.3483 36.8547C44.6726 36.9325 45.0112 37.0428 45.3614 37.1945C45.6299 37.3113 45.7531 37.6226 45.6364 37.8911C45.5197 38.1596 45.2057 38.2828 44.9398 38.1661C44.4378 37.9482 43.967 37.834 43.5389 37.7899C43.4429 37.8937 43.3443 37.9962 43.2444 38.0974C41.1236 40.248 37.847 41.9849 35.2916 43.2133C33.1267 44.2549 31.5195 44.8529 31.1732 45.8426C30.3572 48.1749 31.788 49.9663 33.259 50.9236C34.4861 51.7226 35.7391 51.8757 35.7391 51.8757C35.7391 51.8757 36.4136 54.7087 37.4656 57.002C38.5176 59.298 39.9471 61.0543 39.9471 61.0543C39.9471 61.0543 43.3988 64.2259 47.2345 65.6035C48.2424 65.9654 49.2762 66.204 50.2815 66.2274C51.2077 66.2494 52.2298 65.9952 53.2403 65.6035C56.2263 64.4477 59.1099 62.0921 59.1099 62.0921C59.1099 62.0921 57.6363 63.8367 55.5414 65.6035C54.8319 66.2027 54.0497 66.8033 53.2299 67.3403C51.8744 68.2276 50.4151 68.9384 48.9986 69.168C46.5639 69.565 43.9877 68.3742 42.269 67.3183L40.1715 67.3144C39.8887 69.7284 38.7355 71.2616 38.7355 71.2616L36.9896 82.709C36.9896 82.709 38.3853 84.4316 40.8045 85.8131C43.1082 87.1284 46.3602 88.1051 49.4565 88.1635C52.6916 88.2245 56.0953 87.4008 58.5482 86.1153C60.8195 84.9258 62.2724 83.3096 62.3774 83.1902L62.3645 83.045L62.332 82.8167L60.7326 71.6508C60.7326 71.6508 59.7559 70.7077 59.4679 68.2172C59.4368 67.9422 59.4108 67.653 59.3888 67.3546C59.3473 66.7865 59.3226 66.1885 59.3084 65.606C59.2643 63.7161 59.3369 61.987 59.3369 61.987C59.3369 61.987 61.4526 59.6132 62.7354 57.0851C64.017 54.5569 64.4658 51.8731 64.4658 51.8731C64.4658 51.8731 68.7867 51.1986 68.893 46.9232C68.9151 46.0554 68.5104 45.984 68.5104 45.984L68.5143 45.9814ZM50.0156 42.2599C50.1453 41.9979 50.4644 41.8915 50.7264 42.0225C50.9884 42.1535 51.0948 42.4714 50.9638 42.7334C50.5513 43.561 49.533 46.3096 49.904 47.8493C50.0415 48.4162 50.4242 48.7418 50.8302 49.0868C51.2466 49.4409 51.7174 49.8418 51.7667 50.4968C51.8134 51.1039 51.4878 51.7719 50.7108 52.6657C50.6058 52.7863 50.4592 52.8486 50.31 52.8486C50.1868 52.8486 50.0636 52.8058 49.9624 52.7188C49.7419 52.5269 49.7185 52.1922 49.9105 51.9717C50.598 51.1791 50.7251 50.7757 50.7096 50.5772C50.694 50.3723 50.4838 50.1842 50.1427 49.8949C49.6744 49.4967 49.0907 48.9999 48.8728 48.0984C48.3941 46.1112 49.6511 42.9889 50.0156 42.2612V42.2599ZM42.9033 46.3693C42.1704 46.3693 41.5763 45.6143 41.5763 44.6843C41.5763 43.7542 42.1704 42.998 42.9033 42.998C43.6362 42.998 44.2316 43.7529 44.2316 44.6843C44.2316 45.6156 43.6375 46.3693 42.9033 46.3693ZM55.7217 55.0213C55.3339 57.0617 53.6658 60.865 50.1155 60.865C50.0649 60.865 50.0143 60.865 49.9624 60.8624C45.1344 60.7171 44.216 55.0836 44.2069 55.0278C44.181 54.8578 44.2381 54.6866 44.3613 54.5673C44.4832 54.448 44.657 54.3974 44.8244 54.4259C44.8503 54.4311 47.385 54.9227 49.9274 54.8799C52.4646 54.8747 55.0797 54.4064 55.1056 54.4013C55.2755 54.3701 55.4532 54.4246 55.5765 54.5504C55.6997 54.6737 55.7542 54.8501 55.7204 55.0213H55.7217ZM56.4028 46.368C55.6699 46.368 55.0758 45.6143 55.0758 44.683C55.0758 43.7516 55.6699 42.9967 56.4028 42.9967C57.1356 42.9967 57.7297 43.7516 57.7297 44.683C57.7297 45.6143 57.1356 46.368 56.4028 46.368ZM59.3226 38.1441C59.2202 38.2893 59.0567 38.3672 58.8907 38.3672C58.7856 38.3672 58.6793 38.3347 58.5859 38.2699C58.5171 38.2219 56.8645 37.1011 54.6062 38.1531C54.3403 38.2751 54.0251 38.1609 53.9031 37.8963C53.7799 37.6304 53.8954 37.3152 54.16 37.1919C56.993 35.8753 59.1099 37.3424 59.1981 37.406C59.4368 37.5759 59.4926 37.9067 59.3226 38.1441Z" fill="#FFB69F"/>
<path d="M50.1427 49.8923C50.4839 50.1815 50.694 50.3709 50.7096 50.5746C50.7252 50.773 50.598 51.1765 49.9105 51.969C49.7186 52.1895 49.7419 52.5242 49.9624 52.7162C50.0623 52.8031 50.1868 52.8459 50.3101 52.8459C50.4579 52.8459 50.6058 52.7836 50.7109 52.663C51.4866 51.7693 51.8122 51.1012 51.7668 50.4942C51.7175 49.8378 51.2453 49.4383 50.8302 49.0842C50.4242 48.7391 50.0416 48.4135 49.9041 47.8467C49.5331 46.3083 50.5513 43.5596 50.9638 42.7307C51.0948 42.4687 50.9885 42.1509 50.7264 42.0199C50.4644 41.8902 50.1466 41.9952 50.0156 42.2572C49.6524 42.9849 48.3942 46.1072 48.8728 48.0944C49.0907 48.9972 49.6745 49.4928 50.1427 49.891V49.8923Z" fill="#FF9988"/>
<path fill-rule="evenodd" clip-rule="evenodd" d="M40.2233 38.2699C40.0508 38.0364 40.0975 37.7069 40.3309 37.5318L40.3322 37.5305C40.4075 37.4735 42.0198 36.2969 44.3495 36.8534C44.3495 36.8535 44.3494 36.8535 44.3494 36.8536C44.6733 36.9301 45.0115 37.0416 45.3613 37.1932C45.6298 37.3099 45.753 37.6212 45.6363 37.8897H45.635C45.5183 38.1583 45.2043 38.2815 44.9384 38.1647C44.4364 37.9468 43.9669 37.8327 43.5375 37.7886C43.5375 37.7886 43.5375 37.7885 43.5375 37.7885C42.0167 37.6308 41.0171 38.3426 40.964 38.3815C40.8693 38.4502 40.759 38.4839 40.65 38.4839C40.4866 38.4839 40.3271 38.41 40.2233 38.2699Z" fill="#BD1510"/>
<path d="M59.1969 37.4059C59.1087 37.3424 56.9917 35.874 54.1587 37.1919C53.8928 37.3151 53.7787 37.6303 53.9019 37.8963C54.0238 38.1609 54.3403 38.275 54.6049 38.1531C56.8633 37.1011 58.5159 38.2218 58.5846 38.2698C58.6767 38.3347 58.7831 38.3671 58.8894 38.3671C59.0555 38.3671 59.2176 38.2893 59.3214 38.144C59.4913 37.9066 59.4355 37.5746 59.1969 37.4059Z" fill="#EB3F3A"/>
<path d="M40.2402 65.6034L40.2584 65.8797C40.2597 65.7876 40.261 65.6968 40.261 65.6034H40.2415H40.2402Z" fill="black"/>
<path d="M53.2402 65.6034C52.2297 65.9952 51.2076 66.2494 50.2814 66.2274C49.2761 66.204 48.2423 65.9653 47.2344 65.6034C43.4 64.2272 39.947 61.0543 39.947 61.0543L40.2389 65.6034H40.2583C40.2583 65.6955 40.2583 65.7876 40.2557 65.8797V65.8849C40.2557 65.8849 41.047 66.5685 42.2676 67.3183C43.9877 68.3754 46.5625 69.5649 48.9972 69.168C50.4124 68.9371 51.873 68.2263 53.2286 67.3403C54.0484 66.8033 54.8305 66.2027 55.5401 65.6034C57.635 63.8367 59.1085 62.092 59.1085 62.092C59.1085 62.092 56.2237 64.4477 53.2389 65.6034H53.2402Z" fill="#FF9988"/>
<path d="M42.9019 42.9979C42.169 42.9979 41.575 43.7529 41.575 44.6842C41.575 45.6156 42.169 46.3692 42.9019 46.3692C43.6348 46.3692 44.2302 45.6143 44.2302 44.6842C44.2302 43.7542 43.6361 42.9979 42.9019 42.9979Z" fill="#500907"/>
<path d="M56.4015 42.9967C55.6686 42.9967 55.0745 43.7516 55.0745 44.683C55.0745 45.6144 55.6686 46.368 56.4015 46.368C57.1343 46.368 57.7284 45.6144 57.7284 44.683C57.7284 43.7516 57.1343 42.9967 56.4015 42.9967Z" fill="#500907"/>
<path fill-rule="evenodd" clip-rule="evenodd" d="M49.9273 54.8798C52.4645 54.8746 55.0796 54.4064 55.1055 54.4012H55.1068C55.278 54.37 55.4544 54.4258 55.5777 54.5503C55.6996 54.6736 55.7541 54.85 55.7216 55.0212C55.3325 57.0616 53.6657 60.8649 50.1154 60.8649C50.0659 60.8649 50.0165 60.8636 49.9659 60.8624L49.9623 60.8623C45.1343 60.717 44.2159 55.0848 44.2068 55.0277C44.1809 54.8578 44.238 54.6865 44.3612 54.5672C44.4831 54.4479 44.6556 54.3973 44.8243 54.4258C44.8502 54.431 47.3848 54.9226 49.9273 54.8798ZM44.7311 54.9474C44.7585 54.9524 47.3262 55.4156 49.9286 55.4104C52.5307 55.404 55.1688 54.9284 55.1999 54.9228C55.2001 54.9218 55.2002 54.9213 55.2002 54.9213C55.2002 54.9213 52.5449 55.4013 49.9286 55.4091C47.3122 55.4142 44.7309 54.946 44.7309 54.946C44.7309 54.946 44.7309 54.9465 44.7311 54.9474ZM54.479 55.5739C54.2064 56.4417 53.6368 57.8597 52.5862 58.812C53.6365 57.8596 54.2065 56.4415 54.479 55.5739L54.479 55.5739ZM49.9934 59.8039C50.0387 59.8048 50.0836 59.8049 50.128 59.8042C50.0836 59.8048 50.0387 59.8047 49.9934 59.8038C46.9568 59.7117 45.8037 56.9476 45.421 55.5933L45.421 55.5933C45.8036 56.9476 46.9568 59.7118 49.9934 59.8039Z" fill="#FF7E68"/>
</g>
<defs>
<clipPath id="clip0_5283_69972">
<rect width="100" height="100" fill="white"/>
</clipPath>
</defs>
</svg>
