<svg width="20" height="20" viewBox="0 0 100 100" fill="none" xmlns="http://www.w3.org/2000/svg">
<g clip-path="url(#clip0_5283_69975)">
<path d="M29.2351 74.3314C30.3326 74.0148 36.9555 72.0148 39.4875 69.1662C39.4875 69.1662 39.8708 68.3072 40.2041 67.0021H19.3405C19.3854 66.8765 19.4341 66.7496 19.488 66.6252C20.7918 63.6163 19.5918 62.1048 21.4636 59.8203C22.3956 58.6818 23.2327 56.4947 23.3468 55.5422C23.6891 52.6833 23.6917 48.9834 24.5904 45.8591C26.7583 40.699 26.2916 38.5413 27.4916 35.3863C29.9428 28.939 30.9069 21.6584 35.567 18.0239C37.7106 16.3534 40.1926 15.7214 42.731 14.6509C44.6155 13.8548 46.4783 12.4369 48.5385 12.1625C55.5575 11.2292 61.4677 14.2304 65.2663 17.706C70.7777 22.7481 72.534 29.1634 72.534 29.1634C72.534 29.1634 73.1174 36.1029 74.575 38.6849C76.3211 41.7759 75.4404 44.0822 76.1122 46.6719C76.7224 49.0282 76.8211 52.3089 77.4903 54.8396C78.6262 59.1421 79.7031 63.1253 80.9466 66.2752C81.0351 66.4996 81.1095 66.7432 81.1748 67.0008H60.4087C60.8215 68.9508 61.7856 69.7828 61.7856 69.7828C63.4368 72.1712 71.1097 74.2763 71.1097 74.2763C71.1097 74.2763 71.0815 74.3122 71.0289 74.3776H71.2341C71.2341 74.3776 82.8428 78.2762 88.0683 82.4184C95.5104 73.6891 100.003 62.3689 100.003 49.9987C100 22.3853 77.6147 0 50 0C22.3853 0 0 22.3853 0 50C0 62.3933 4.51014 73.734 11.9779 82.4697C17.179 77.4442 28.9941 74.3301 28.9941 74.3301H29.2351V74.3314Z" fill="white"/>
<rect x="71.6648" y="28.9736" width="9.48694" height="19.3585" fill="white"/>
<rect x="16.5381" y="32.0504" width="14.615" height="34.9991" fill="white"/>
<path d="M50 100C65.2444 100 78.8941 93.1771 88.0656 82.4197C82.8401 78.2775 71.2315 74.3789 71.2315 74.3789H71.0263C70.3187 75.2583 65.0291 81.7184 58.7164 86.1978C55.8383 88.2388 53.0114 90.6566 49.8833 90.6643C47.2154 90.6707 44.2898 88.3413 41.813 86.7747C34.5388 82.1722 29.0774 74.3763 29.0774 74.3763C29.0774 74.3763 29.1325 74.3609 29.2338 74.3314H28.9928C28.9928 74.3314 17.1777 77.4454 11.9766 82.4697C21.1468 93.1989 34.7785 100 49.9987 100H50Z" fill="#4598C4"/>
<path d="M40.6875 63.333L40.376 58.5972C40.376 58.5972 38.9453 56.8383 37.8927 54.5409C36.8402 52.2461 36.1646 49.4103 36.1646 49.4103C36.1646 49.4103 34.9095 49.2564 33.6826 48.4564C32.2108 47.4988 30.7788 45.7065 31.5955 43.372C31.9416 42.381 33.5492 41.7835 35.7159 40.74C38.2722 39.5105 41.5516 37.7721 43.6746 35.6196C43.7682 35.5247 43.8592 35.4286 43.9503 35.3324C43.258 35.3004 42.3708 35.4375 41.4131 36.0311C41.1632 36.1837 40.8362 36.108 40.6837 35.8593C40.5298 35.6093 40.6068 35.2824 40.8555 35.1286C42.4195 34.1619 43.8503 34.1824 44.7836 34.3735C45.9733 32.8979 46.8886 31.2787 47.6579 29.671C48.8463 27.189 49.3078 25.1442 51.4975 24.1686C53.7577 23.1597 58.3537 24.907 58.455 26.1506C58.5576 27.3942 59.4806 33.1979 61.7947 35.9273C65.242 39.9913 68.9624 43.5117 68.9624 43.5117C68.9624 43.5117 69.3676 43.5835 69.3445 44.4514C69.2381 48.7308 64.9138 49.4051 64.9138 49.4051C64.9138 49.4051 64.4651 52.091 63.1818 54.6217C61.8985 57.1524 59.7806 59.5267 59.7806 59.5267C59.7806 59.5267 59.9947 63.7535 60.2832 66.2483C60.3139 66.5162 60.3575 66.7637 60.4075 66.9995H81.1737C81.1096 66.7419 81.0352 66.497 80.9455 66.2739C79.7019 63.1227 78.6263 59.1395 77.4891 54.8383C76.8199 52.3076 76.7212 49.0269 76.111 46.6706C75.4405 44.0809 75.1905 43.372 74.2931 37.8837C73.3957 32.3954 73.7039 32.4335 72.5329 29.1621C70.7472 24.1734 70.7765 22.7468 65.2651 17.7047C61.4665 14.2291 55.5577 11.2279 48.5373 12.1612C46.4771 12.4356 44.6143 13.8535 42.7298 14.6496C40.1914 15.7214 37.7094 16.3521 35.5659 18.0226C30.9057 21.6571 30.3839 34.3735 30.3839 34.3735C30.3839 34.3735 26.4097 44.2297 25.7687 45.8963C25.1277 47.5629 24.2025 51.6242 23.1405 55.4473C22.82 56.6011 22.6251 57.1246 21.7501 59.8746C20.8751 62.6246 20.7906 63.6163 19.4868 66.6239C19.4329 66.7483 19.3842 66.8739 19.3394 67.0008H40.2029C40.3683 66.3547 40.5209 65.6009 40.6093 64.7868C40.658 64.3342 40.6824 63.8394 40.6875 63.333Z" fill="#441D39"/>
<path d="M61.7842 69.7828C61.7842 69.7828 60.8202 68.952 60.4074 67.0008C60.3574 66.7662 60.3138 66.5175 60.283 66.2495C59.9945 63.7547 59.7805 59.5279 59.7805 59.5279C59.7805 59.5279 61.8983 57.1523 63.1816 54.6229C64.4649 52.0922 64.9137 49.4064 64.9137 49.4064C64.9137 49.4064 69.2379 48.732 69.3443 44.4527C69.3661 43.5847 68.9623 43.5129 68.9623 43.5129C68.9623 43.5129 65.2419 39.9912 61.7945 35.9285C59.4805 33.1991 58.5574 27.3954 58.4548 26.1518C58.3523 24.9083 53.7575 23.1596 51.4973 24.1698C49.3076 25.1455 48.8461 27.1916 47.6577 29.6723C46.8885 31.2799 45.9731 32.8991 44.7834 34.3747C45.4372 34.508 45.8475 34.726 45.8872 34.7478C46.1436 34.8875 46.2385 35.2106 46.0975 35.467C46.0116 35.6234 45.859 35.7195 45.6949 35.7388C45.5898 35.7516 45.4808 35.7324 45.3808 35.6785C45.3398 35.6567 44.7885 35.3721 43.9501 35.3337C43.8591 35.4298 43.768 35.526 43.6745 35.6208C41.5527 37.7733 38.272 39.5118 35.7157 40.7412C33.5491 41.7835 31.9414 42.3822 31.5953 43.3732C30.7786 45.7078 32.2106 47.5 33.6824 48.4577C34.9093 49.2577 36.1644 49.4115 36.1644 49.4115C36.1644 49.4115 36.84 52.246 37.8926 54.5421C38.9451 56.8395 40.3758 58.5984 40.3758 58.5984C40.3758 58.5984 45.8923 63.8675 50.7256 63.9816C54.3883 64.0675 59.5612 59.8433 59.5612 59.8433C59.5612 59.8433 54.2447 66.1418 49.4435 66.9239C45.2757 67.6021 40.6874 63.3342 40.6874 63.3342C40.6822 63.8406 40.6591 64.3355 40.6091 64.788C40.5207 65.6021 40.3681 66.3559 40.2027 67.0021C39.8694 68.3059 39.4861 69.1661 39.4861 69.1661C36.9554 72.0148 30.3312 74.0147 29.2338 74.3314C29.1325 74.3609 29.0774 74.3762 29.0774 74.3762C29.0774 74.3762 34.5388 82.1735 41.813 86.7746C44.2898 88.34 47.2141 90.6707 49.8833 90.6643C53.0114 90.6566 55.8382 88.2387 58.7164 86.1977C65.0278 81.7184 70.3186 75.2583 71.0263 74.3788C71.0789 74.3134 71.1071 74.2775 71.1071 74.2775C71.1071 74.2775 63.4342 72.1725 61.783 69.7841L61.7842 69.7828ZM50.4499 39.7887C50.5807 39.5259 50.8986 39.4207 51.1614 39.5502C51.423 39.6823 51.5294 39.9989 51.3986 40.2617C50.9858 41.0899 49.9666 43.8411 50.3371 45.3808C50.4743 45.9488 50.8576 46.2744 51.264 46.6193C51.6807 46.9744 52.1512 47.3744 52.2012 48.0308C52.2473 48.6384 51.9217 49.3064 51.1448 50.2012C51.0397 50.3217 50.8922 50.3846 50.7448 50.3846C50.6217 50.3846 50.4974 50.341 50.3974 50.2551C50.1769 50.0628 50.1525 49.7282 50.3448 49.5077C51.0332 48.7141 51.1602 48.3115 51.1448 48.1115C51.1294 47.9064 50.9191 47.718 50.5768 47.4282C50.1076 47.0295 49.5243 46.5334 49.3064 45.6295C48.8269 43.6411 50.0858 40.5169 50.4499 39.7887ZM43.3322 43.9014C42.5988 43.9014 42.004 43.1463 42.004 42.2155C42.004 41.2848 42.5988 40.5284 43.3322 40.5284C44.0655 40.5284 44.6603 41.2835 44.6603 42.2155C44.6603 43.1476 44.0655 43.9014 43.3322 43.9014ZM56.16 52.5601C55.7716 54.6011 54.1024 58.4074 50.5499 58.4074C50.4986 58.4074 50.4486 58.4074 50.3974 58.4049C45.5667 58.2587 44.6475 52.6217 44.6385 52.5653C44.6129 52.396 44.6706 52.2242 44.7937 52.105C44.9154 51.9858 45.0885 51.9345 45.2577 51.9627C45.2834 51.9678 47.8192 52.4601 50.364 52.4165C52.9024 52.4114 55.519 51.9422 55.5459 51.9384C55.7165 51.9076 55.8934 51.9627 56.0164 52.0871C56.1395 52.2101 56.1934 52.3871 56.1613 52.5589L56.16 52.5601ZM56.8408 43.9001C56.1075 43.9001 55.5126 43.1463 55.5126 42.2142C55.5126 41.2822 56.1075 40.5271 56.8408 40.5271C57.5741 40.5271 58.169 41.2822 58.169 42.2142C58.169 43.1463 57.5741 43.9001 56.8408 43.9001ZM59.3305 35.8939C59.2253 35.8939 59.1189 35.8618 59.0253 35.7965C58.9561 35.749 57.3023 34.6273 55.0434 35.6798C54.778 35.8016 54.4614 35.6875 54.3396 35.4221C54.2165 35.1567 54.3306 34.8401 54.5973 34.717C57.4318 33.3991 59.551 34.867 59.6394 34.9311C59.8779 35.1003 59.9343 35.4324 59.7638 35.6708C59.6612 35.8157 59.4971 35.8939 59.3317 35.8939H59.3305Z" fill="#FFB69F"/>
<path d="M50.5769 47.4296C50.9192 47.7193 51.1295 47.9077 51.1449 48.1129C51.1602 48.3116 51.0333 48.7154 50.3449 49.509C50.1526 49.7295 50.1769 50.0654 50.3974 50.2564C50.4974 50.3436 50.6218 50.3859 50.7449 50.3859C50.8936 50.3859 51.041 50.3231 51.1449 50.2026C51.9218 49.3077 52.2474 48.6385 52.2012 48.0321C52.1512 47.3757 51.6795 46.9757 51.2641 46.6206C50.8577 46.2757 50.4744 45.9501 50.3372 45.3822C49.9654 43.8425 50.9846 41.0913 51.3987 40.2631C51.5295 40.0015 51.4231 39.6836 51.1615 39.5516C50.9 39.4221 50.5808 39.5272 50.45 39.79C50.0859 40.5182 48.827 43.6425 49.3064 45.6309C49.5244 46.5334 50.109 47.0308 50.5769 47.4296Z" fill="#FF9988"/>
<path d="M59.6382 34.9325C59.5497 34.8684 57.4319 33.4004 54.596 34.7184C54.3307 34.8414 54.2153 35.1568 54.3383 35.4235C54.4614 35.6889 54.7768 35.803 55.0422 35.6812C57.3024 34.6286 58.9549 35.7504 59.0241 35.7978C59.1164 35.8632 59.2228 35.8953 59.3292 35.8953C59.4946 35.8953 59.6587 35.8171 59.7613 35.6722C59.9318 35.4337 59.8754 35.103 59.6369 34.9325H59.6382Z" fill="#441D39"/>
<path d="M43.3309 40.5284C42.5975 40.5284 42.0027 41.2836 42.0027 42.2156C42.0027 43.1476 42.5975 43.9014 43.3309 43.9014C44.0642 43.9014 44.659 43.1463 44.659 42.2156C44.659 41.2848 44.0642 40.5284 43.3309 40.5284Z" fill="#441D39"/>
<path d="M56.8409 40.5284C56.1076 40.5284 55.5127 41.2836 55.5127 42.2156C55.5127 43.1476 56.1076 43.9014 56.8409 43.9014C57.5742 43.9014 58.169 43.1476 58.169 42.2156C58.169 41.2836 57.5742 40.5284 56.8409 40.5284Z" fill="#441D39"/>
<path d="M55.5435 51.9397C55.5166 51.9448 52.9013 52.4127 50.3616 52.4179C47.8168 52.4615 45.281 51.9692 45.2553 51.964C45.0874 51.9358 44.913 51.9858 44.7912 52.1063C44.6682 52.2256 44.6105 52.3974 44.6361 52.5666C44.6451 52.623 45.5643 58.26 50.3949 58.4062C50.4462 58.4075 50.4975 58.4087 50.5475 58.4087C54.1 58.4087 55.7692 54.6024 56.1576 52.5615C56.1897 52.391 56.1358 52.214 56.0127 52.0897C55.8897 51.964 55.7127 51.9102 55.5422 51.941L55.5435 51.9397Z" fill="#FFB69F"/>
<path d="M50.3205 56.7717C52.2243 56.7717 54.1691 56.255 55.5319 55.0884C55.7627 54.8909 55.7896 54.5448 55.5922 54.314C55.3947 54.0833 55.0486 54.0576 54.8178 54.2538C52.4679 56.2665 47.6578 55.973 45.7822 54.2858C45.5565 54.0833 45.2104 54.1012 45.0065 54.3269C44.804 54.5525 44.8219 54.8999 45.0476 55.1025C46.2206 56.1576 48.2462 56.7717 50.3205 56.7717Z" fill="#FF9988"/>
<path d="M40.8541 35.1312C40.6054 35.285 40.5284 35.612 40.6823 35.862C40.8348 36.1107 41.1618 36.1863 41.4118 36.0337C42.3707 35.4402 43.2579 35.3043 43.9489 35.335C44.7873 35.3735 45.3386 35.6581 45.3796 35.6799C45.4796 35.7338 45.5886 35.753 45.6937 35.7402C45.8578 35.7209 46.0116 35.6235 46.0962 35.4684C46.2373 35.212 46.1424 34.8889 45.886 34.7492C45.8463 34.7274 45.4373 34.5094 44.7822 34.3761C43.8489 34.1851 42.4181 34.1646 40.8541 35.1312Z" fill="#441D39"/>
<path d="M40.6875 63.3343C40.6875 63.3343 45.2759 67.6034 49.4437 66.9239C54.2436 66.1419 59.5614 59.8434 59.5614 59.8434C59.5614 59.8434 54.3884 64.0676 50.7257 63.9817C45.8938 63.8676 40.376 58.5985 40.376 58.5985L40.6875 63.3343Z" fill="#FF9988"/>
<path d="M63.495 13.0264C59.9944 9.12867 49.3652 8.9041 41.1969 12.2662L40.2629 10.4628C40.0883 10.1304 39.679 9.99621 39.3377 10.1723C39.0047 10.3468 38.87 10.7555 39.0462 11.0961L39.9429 12.8386C33.7034 15.8137 27.8002 22.0088 25.977 28.723C24.098 35.6352 30.5578 34.2417 30.5578 34.2417C35.2763 22.9814 64.0184 19.37 64.0184 19.37C65.4302 18.7759 67.0965 17.0495 63.4884 13.0362L63.495 13.0264Z" fill="#FF7C59"/>
</g>
<defs>
<clipPath id="clip0_5283_69975">
<rect width="100" height="100" fill="white"/>
</clipPath>
</defs>
</svg>
